<?xml version="1.0" encoding="UTF-8" standalone="no"?>
<svg
   xmlns:dc="http://purl.org/dc/elements/1.1/"
   xmlns:cc="http://creativecommons.org/ns#"
   xmlns:rdf="http://www.w3.org/1999/02/22-rdf-syntax-ns#"
   xmlns:svg="http://www.w3.org/2000/svg"
   xmlns="http://www.w3.org/2000/svg"
   width="325.34494mm"
   height="114.14881mm"
   viewBox="0 0 325.34494 114.14881"
   version="1.1"
   id="svg8">
  <defs
     id="defs2" />
  <metadata
     id="metadata5">
    <rdf:RDF>
      <cc:Work
         rdf:about="">
        <dc:format>image/svg+xml</dc:format>
        <dc:type
           rdf:resource="http://purl.org/dc/dcmitype/StillImage" />
        <dc:title></dc:title>
      </cc:Work>
    </rdf:RDF>
  </metadata>
  <g
     transform="translate(71.664286,-224.46217)"
     id="g978">
    <rect
       style="fill:#ffffff;fill-opacity:1;fill-rule:evenodd;stroke-width:0.442065;stroke-linecap:round;stroke-linejoin:round"
       id="rect966"
       width="70.870537"
       height="46.207588"
       x="-50.249866"
       y="254.21747" />
    <g
       id="g964"
       transform="translate(74.839286,152.70238)">
      <g
         transform="matrix(0.22829762,0,0,0.22829762,-200.38181,125.63803)"
         id="g874">
        <rect
           style="opacity:0;fill:#55aa00;fill-opacity:1;fill-rule:evenodd;stroke-width:5.08833;stroke-linecap:round;stroke-linejoin:round"
           id="rect844"
           width="500"
           height="500"
           x="236"
           y="-236" />
        <g
           id="g851"
           transform="matrix(1.1412919,0,0,1.1412919,-75.515617,-9.225289)">
          <path
             id="path4"
             d="m 710.7,20.7 c 0,120.8 -97.9,218.7 -218.7,218.7 -120.8,0 -218.7,-97.9 -218.7,-218.7 h 34.3 c 0,101.9 82.6,184.5 184.5,184.5 101.9,0 184.5,-82.6 184.5,-184.5 z"
             fill="#009d57" />
          <path
             id="path6"
             d="m 306.9,-43.7 -4,-1 -2.5,10 c 1.6,0.2 2.9,1 3.5,2.4 0.4,1 0.5,2.5 0.2,4.1 l -3,12.1 c -0.3,1.1 -1.5,3.1 -2.6,3.6 -1.5,0.8 -2.8,0.6 -4.5,0.2 l -8,-2 c -1.6,-0.4 -2.5,-1.2 -3.1,-2.7 -0.5,-1.5 0.2,-3.6 0.4,-4.5 l 2.7,-10.9 c 0.4,-1.6 0.9,-3.5 2,-3.9 1,-0.3 2.4,-0.5 3.6,0 l 2.5,-10 -2.2,-0.5 c -3.7,-0.9 -6.6,-0.9 -9.8,1.8 -1.6,1.5 -3.2,7 -3.4,7.8 l -4,16 c -0.5,2 -1.8,7.9 -0.4,11.3 1.5,3.6 6,5.3 10.7,6.5 l 5.4,1.4 c 3.2,0.8 9.5,2.5 12.6,-0.1 3.4,-2.8 4.5,-5.6 5.6,-9.9 l 3.7,-14.9 c 1,-4.2 2.2,-7 0.9,-11.1 -1.2,-3.7 -3.3,-4.9 -6.3,-5.7 z m -18.4,-21.2 31.5,15.4 4.9,-10 -31.5,-15.4 z m 35.9,-47.5 -7.1,-4.3 -21.3,35.5 7.1,4.3 7.8,-13 23,13.8 5.6,-9.3 -23,-13.8 z m 39.1,-46.8 -10,8.7 1,18.8 -18.6,-3.5 -10.1,8.8 30.1,4 8,9.3 7.9,-6.9 -8.2,-9.5 z m 85.3,-21.5 c -0.9,-2.7 -2.5,-8.6 -8.1,-10.3 -4.1,-1.3 -7.2,-0.4 -11.3,1.1 l -17.8,6.1 c -3.8,1.3 -6.7,2.2 -8.7,5.5 -2.5,4.2 -0.4,10.1 0.7,13.2 l 1.4,4 c 1.1,3.1 2.9,9.8 6.6,11.1 4.1,1.3 7.2,0.8 11.1,-0.5 l 18.8,-6.5 c 4.2,-1.4 7.8,-3.5 9.6,-6.3 2.5,-3.9 0.3,-9.8 -1,-13.5 z m -9,14.4 c -0.6,0.9 -1.8,1.8 -3.3,2.3 l -13.7,4.7 c -1,0.4 -3.6,0.6 -4.6,0.1 -1.4,-0.9 -1.8,-2.2 -2.4,-3.8 l -2.3,-6.8 c -0.7,-1.9 -1,-3.6 0.2,-5.2 0.9,-1.3 3.1,-1.8 3.9,-2.1 l 12.8,-4.4 c 1.5,-0.5 2.8,-0.9 4.1,-0.4 1.4,0.5 2,1.5 2.5,2.9 l 3,8.6 c 0.5,1.6 0.6,2.9 -0.2,4.1 z m 59.9,-32.4 -36.2,1.9 1.8,35 10.6,-0.6 -0.6,-12.2 24.3,-1.3 -0.4,-8 -24.3,1.3 -0.3,-6.6 25.6,-1.3 z m 40.4,6.2 -8.5,34 10.8,2.7 8.5,-34 z m 53.5,20.1 -28.3,-13.8 -15.4,31.5 9.3,4.6 4.1,-8.4 15.8,7.7 c 0.8,0.4 1.2,0.8 1.6,1.6 0.4,0.9 0.5,1.7 0.1,2.6 l -2.7,5.6 9.5,4.6 2.9,-6 c 0.8,-1.6 1.1,-2.8 0.8,-4.4 -0.4,-2.2 -2.9,-4.5 -3.4,-4.8 0.3,0.1 2.8,0.5 4.5,0.3 2.1,-0.3 3.3,-1.9 4.3,-3.9 l 2.2,-4.6 c 1.4,-2.8 1.4,-5.4 -0.1,-8.1 -1.1,-2.3 -2.8,-3.3 -5.2,-4.5 z m -4.8,10.7 -1.1,2.3 c -0.4,0.9 -1,1.3 -1.9,1.6 -1.2,0.4 -2.1,0 -3.3,-0.5 l -15.5,-7.6 4.1,-8.3 16.1,7.8 c 1,0.5 1.8,0.9 2.1,2 0.2,1 -0.1,1.8 -0.5,2.7 z m 56.1,26.5 -27.6,10.3 6.6,-29.1 -8.9,-8 -8.8,39.3 10.1,9.1 37.2,-13.7 z m 14.6,16.1 -27.6,21.6 6.9,8.8 27.6,-21.6 z m 32.7,52.6 -23.1,11.3 14.1,-29.7 -7.3,-15 -31.5,15.4 4.8,9.9 22.8,-11.1 -14,29.3 7.1,14.7 31.5,-15.4 z m 9.2,60.7 8,-1.8 -8.5,-36.7 -34.2,7.9 8.6,37.4 8,-1.9 -6.2,-27 5.7,-1.3 5.8,25 6.7,-1.5 -5.8,-25.1 5.7,-1.3 z"
             fill="#231f20" />
          <polygon
             id="polygon8"
             points="447.2,-115.6 538.2,-115.6 538.3,166.7 447,166.7 "
             fill="#231f20" />
          <path
             id="path10"
             d="m 457.3,210.4 -0.7,-0.1 -0.3,3.4 5.8,0.5 -1.5,16.8 4.8,0.4 2.1,-24.4 -4,-0.3 c -0.1,1.8 -1.5,4.1 -6.2,3.7 z m 26.1,-2.3 c -4.8,0 -8.4,2.8 -8.4,8.8 0,4.1 2.7,7.7 7.4,7.7 1.7,0 3.6,-0.4 4.7,-2.1 l 0.1,0.1 c 0,5.1 -2,6.8 -4,6.8 -1.5,0 -2.6,-0.7 -2.8,-2.4 v 0 h -4.8 c 0.4,3.9 3.4,6.3 7.6,6.3 4.4,0 8.9,-3.1 8.9,-12.6 0,-3.5 -0.2,-12.6 -8.7,-12.6 z m 0.1,12.6 c -1.8,0 -3.6,-0.8 -3.6,-4.5 0,-3.5 2.2,-4.1 3.5,-4.1 2.5,0 3.7,1.7 3.7,4.5 0,2.9 -1.9,4.1 -3.6,4.1 z m 13.1,-11.9 0.1,4.3 12.2,-0.5 c -2,2.3 -7.8,10.3 -8,20.2 l 5,-0.2 c 0.2,-10.6 5.9,-18.1 8.2,-20.7 l -0.1,-3.7 z m 31.9,-3.8 -3.9,0.8 c 0.2,1.8 -0.5,4.4 -5.1,5.3 l -0.7,0.1 0.6,3.3 5.7,-1.1 3.2,16.6 4.7,-0.9 z"
             fill="#ffffff" />
          <path
             id="path12"
             d="M 537.8,-115.9 V -33 h -90.3 v -82.8 l -94.7,27.3 V 92.2 L 447.7,166 V -17.7 H 538 V 166 L 632,90.2 V -89.2 Z m -125.3,53.8 c 8.1,0 14.7,6.6 14.7,14.7 0,8.1 -6.6,14.7 -14.7,14.7 -8.1,0 -14.7,-6.6 -14.7,-14.7 0,-8.1 6.6,-14.7 14.7,-14.7 z M 380,-45.3 c 7.1,0 12.8,5.7 12.8,12.8 0,7.1 -5.7,12.8 -12.8,12.8 -7.1,0 -12.8,-5.7 -12.8,-12.8 0,-7.1 5.8,-12.8 12.8,-12.8 z m -5.6,137 C 362,91.5 360.5,84.6 360.7,80.8 c 0,0 5.2,-77.5 6,-84.8 0.8,-7.3 8.5,-7.8 14.9,-8.9 6.4,-1.1 14.6,-10.6 22.7,-11.4 8.1,-0.8 14.3,-0.6 18.3,0.7 7.2,2.4 16.3,24.4 15.4,35 -2.1,23.4 -34.9,10.2 -38.1,35 -2.1,16.5 1.1,39.7 4.6,45.3 -4.4,0 -30.1,0 -30.1,0 z M 441,79.6 c -1,9 -2.8,12.1 -8.8,12.1 -6,0 -12.9,0 -16.8,0 -3.9,0 -7.2,-6 -7.4,-10.1 -0.2,-4.1 0,-25.4 0,-33.3 0,-7.9 7.1,-11.3 13,-12.5 5.8,-1.2 8.5,-4.2 13,-5.7 4.5,-1.5 7,9.2 7,11 z M 602.1,-80.1 c 3.8,5 0.7,15.4 -9.7,17.8 -4.9,-8 3.6,-15.4 9.7,-17.8 z m -37.6,0 c 3.1,1.8 11.2,7.1 11.2,11.2 0,1.7 -0.7,4.4 -1.5,6.6 -5.2,-1.8 -9.8,-6.7 -9.7,-11.7 z m 11.8,153.5 c 0,1.7 -2.5,6.4 -4.3,8.9 -1.5,2.1 -4.4,4.4 -7.2,5.8 -1.2,0.6 -2.7,0.9 -4.1,1.6 l -2.4,-0.3 c 3.9,-0.6 13.3,-11.7 13.3,-15.8 V -35.8 c -1.2,-0.5 -2.3,-1.8 -4,-1.8 -6.1,0 -4.8,6.6 -13.9,6.6 -1.7,0 -5.7,-1.3 -8.6,-2.2 4.9,-4.4 7.9,-9.4 11.6,-9 6.4,1.8 13.8,0.7 13.8,0.7 0,0 -0.2,-10.3 -6.7,-14.5 -1.7,-1 -10.5,0.5 -12.7,-11.2 0,0 8.6,-1.2 11.7,0.7 2.1,1.3 3.3,4.9 4.3,6.6 1.7,2.8 9.2,11.3 9.2,18.2 0,6.9 0,115.1 0,115.1 z m -23.4,-87.9 c 0.5,-2.1 3.4,-14.5 8.9,-14.5 0,0 4.8,0 6.1,0 0.5,10.9 -9.6,12.6 -15,14.5 z m -8.8,-38.2 c 3.6,-0.2 8.6,-2.2 10.3,-2.2 3.1,0 8.3,4.2 9.6,7.8 -2.2,0.8 -4.9,2.2 -6.6,2.2 -5.8,0 -9,-2.9 -13.3,-7.8 z m 42.1,-13 V 89.7 H 581 v -156 c -1.4,-1 -3.4,-4.8 -3.4,-6.5 0,-1.7 3.4,-7.1 5.6,-11.3 4.3,6 5.7,7.6 5.7,11.9 0,2.7 -2.6,4.2 -2.7,6.5 z m 27.1,34.7 c -9.1,0 -7.8,-6.6 -13.9,-6.6 -1.7,0 -2.8,1.3 -4,1.8 V 73.6 c 0,4.1 9.4,15.3 13.3,15.8 l -2.4,0.3 c -1.4,-0.7 -2.9,-1 -4.1,-1.6 -2.8,-1.4 -5.7,-3.8 -7.2,-5.8 -1.7,-2.5 -4.3,-7.2 -4.3,-8.9 0,0 0,-103.3 0,-110.6 0,-11.3 6.5,-20 9.2,-22.8 0.7,-4.6 8.9,-10.9 16,-7.3 -0.9,6.4 -6.9,11.7 -12.7,11.2 -5,2 -8,12.4 -6.7,14.5 1.3,2.1 12.2,-0.7 13.8,-0.7 4.7,0 6.7,4.6 11.6,9 -2.8,1 -6.9,2.3 -8.6,2.3 z m 2.1,16.5 c -5.4,-1.9 -16.3,-4.9 -15.1,-14.5 3.3,-0.7 6.1,0 6.1,0 5.6,0 8.5,12.4 9,14.5 z m 6,-38.2 c -4.3,4.8 -7.4,7.8 -13.2,7.8 -1.7,0 -4.4,-1.3 -6.6,-2.2 1.3,-3.6 6.5,-7.8 9.6,-7.8 1.6,0 6.6,2 10.2,2.2 z m -204.2,76 c 6.7,0 12.1,-5.4 12.1,-12.1 0,-6.7 -5.4,-12.1 -12.1,-12.1 -6.7,0 -12.1,5.4 -12.1,12.1 0,6.7 5.4,12.1 12.1,12.1 z m 0,-20.6 c 4.7,0 8.5,3.8 8.5,8.5 0,4.7 -3.8,8.5 -8.5,8.5 -4.7,0 -8.5,-3.8 -8.5,-8.5 0,-4.7 3.8,-8.5 8.5,-8.5 z"
             fill="#00acd5" />
        </g>
      </g>
    </g>
  </g>
  <g
     transform="translate(-3.1999998e-7,-0.1462495)"
     id="g944">
    <g
       id="g936"
       transform="translate(145.44391,-71.61115)">
      <g
         style="font-style:normal;font-variant:normal;font-weight:normal;font-stretch:normal;font-size:39.4749px;line-height:1.25;font-family:'Operator Mono';-inkscape-font-specification:'Operator Mono';letter-spacing:0px;word-spacing:0px;fill:#888888;fill-opacity:1;stroke:none;stroke-width:0.411197"
         id="text849"
         aria-label="CITY OF">
        <path
           id="path894"
           style="font-style:normal;font-variant:normal;font-weight:normal;font-stretch:normal;font-size:39.4749px;font-family:Montserrat;-inkscape-font-specification:Montserrat;fill:#888888;fill-opacity:1;stroke-width:0.411197"
           d="m 0.2855993,116.28809 q -4.1053895,0 -7.4212811,-1.81585 -3.2764162,-1.81584 -5.1712122,-5.01331 -1.85532,-3.23694 -1.85532,-7.22391 0,-3.986961 1.85532,-7.184427 1.894796,-3.236942 5.2106871,-5.052788 3.3158916,-1.815845 7.4212811,-1.815845 3.0790421,0 5.6843855,1.026347 2.6053434,1.026348 4.4211883,3.000093 L 8.5753282,94.06372 Q 5.3383864,90.787303 0.404024,90.787303 q -3.2764166,0 -5.9607098,1.500047 -2.6842931,1.500046 -4.2238142,4.105389 -1.500046,2.605344 -1.500046,5.842281 0,3.23695 1.500046,5.84229 1.5395211,2.60534 4.2238142,4.10539 2.6842932,1.50005 5.9607098,1.50005 4.9738373,0 8.1713042,-3.3159 l 1.8553198,1.85532 q -1.8158449,1.97375 -4.4606632,3.03957 -2.6053434,1.02635 -5.6843855,1.02635 z" />
        <path
           id="path896"
           style="font-style:normal;font-variant:normal;font-weight:normal;font-stretch:normal;font-size:39.4749px;font-family:Montserrat;-inkscape-font-specification:Montserrat;fill:#888888;fill-opacity:1;stroke-width:0.411197"
           d="m 16.657813,88.41881 h 2.921143 v 27.63243 h -2.921143 z" />
        <path
           id="path898"
           style="font-style:normal;font-variant:normal;font-weight:normal;font-stretch:normal;font-size:39.4749px;font-family:Montserrat;-inkscape-font-specification:Montserrat;fill:#888888;fill-opacity:1;stroke-width:0.411197"
           d="M 33.976807,90.945203 H 24.265981 V 88.41881 h 22.342793 v 2.526393 h -9.710825 v 25.106037 h -2.921142 z" />
        <path
           id="path900"
           style="font-style:normal;font-variant:normal;font-weight:normal;font-stretch:normal;font-size:39.4749px;font-family:Montserrat;-inkscape-font-specification:Montserrat;fill:#888888;fill-opacity:1;stroke-width:0.411197"
           d="m 60.518125,106.49831 v 9.55293 h -2.881668 v -9.55293 L 46.583485,88.41881 h 3.118517 l 9.473976,15.51363 9.473976,-15.51363 h 2.921142 z" />
        <path
           id="path902"
           style="font-style:normal;font-variant:normal;font-weight:normal;font-stretch:normal;font-size:39.4749px;font-family:Montserrat;-inkscape-font-specification:Montserrat;fill:#888888;fill-opacity:1;stroke-width:0.411197"
           d="m 98.512102,116.28809 q -4.10539,0 -7.460756,-1.81585 -3.315892,-1.85532 -5.210687,-5.05278 -1.85532,-3.19747 -1.85532,-7.18444 0,-3.986961 1.85532,-7.184427 1.894795,-3.197467 5.210687,-5.013313 3.355366,-1.85532 7.460756,-1.85532 4.105388,0 7.381808,1.815845 3.31589,1.815846 5.21068,5.052788 1.8948,3.197466 1.8948,7.184427 0,3.98697 -1.8948,7.22391 -1.89479,3.19747 -5.21068,5.01331 -3.27642,1.81585 -7.381808,1.81585 z m 0,-2.60534 q 3.276418,0 5.921238,-1.46058 2.64481,-1.50004 4.14486,-4.10539 1.50005,-2.64481 1.50005,-5.88176 0,-3.236937 -1.50005,-5.842281 -1.50005,-2.644818 -4.14486,-4.105389 -2.64482,-1.500047 -5.921238,-1.500047 -3.276417,0 -5.96071,1.500047 -2.644818,1.460571 -4.18434,4.105389 -1.500046,2.605344 -1.500046,5.842281 0,3.23695 1.500046,5.88176 1.539522,2.60535 4.18434,4.10539 2.684293,1.46058 5.96071,1.46058 z" />
        <path
           id="path904"
           style="font-style:normal;font-variant:normal;font-weight:normal;font-stretch:normal;font-size:39.4749px;font-family:Montserrat;-inkscape-font-specification:Montserrat;fill:#888888;fill-opacity:1;stroke-width:0.411197"
           d="M 122.50667,90.945203 V 101.8008 h 14.28991 v 2.52639 h -14.28991 v 11.72405 h -2.92115 V 88.41881 h 18.94795 v 2.526393 z" />
      </g>
    </g>
    <g
       aria-label="IRVINE"
       id="text82"
       style="font-style:normal;font-variant:normal;font-weight:800;font-stretch:normal;font-size:54.8424px;line-height:1.25;font-family:Montserrat;-inkscape-font-specification:'Montserrat Ultra-Bold';letter-spacing:0px;word-spacing:0px;fill:#000000;fill-opacity:1;stroke:none;stroke-width:0.571274">
      <g
         id="g103"
         style="fill:#00acd5;fill-opacity:1">
        <path
           id="path84"
           style="font-style:normal;font-variant:normal;font-weight:800;font-stretch:normal;font-size:54.8424px;font-family:Montserrat;-inkscape-font-specification:'Montserrat Ultra-Bold';fill:#00acd5;fill-opacity:1;stroke-width:0.571274"
           d="m 131.2817,59.480819 h 10.8588 v 38.38968 h -10.8588 z" />
        <path
           id="path86"
           style="font-style:normal;font-variant:normal;font-weight:800;font-stretch:normal;font-size:54.8424px;font-family:Montserrat;-inkscape-font-specification:'Montserrat Ultra-Bold';fill:#00acd5;fill-opacity:1;stroke-width:0.571274"
           d="m 166.70132,87.669812 h -5.92298 v 10.200687 h -10.85879 v -38.38968 h 17.54957 q 5.21002,0 9.04899,1.754957 3.83897,1.700114 5.92298,4.935816 2.08401,3.180859 2.08401,7.513408 0,4.168023 -1.97432,7.29404 -1.91949,3.071174 -5.53909,4.826131 l 8.28121,12.065328 H 173.66631 Z M 173.55662,73.685 q 0,-2.687277 -1.70011,-4.168022 -1.70012,-1.480745 -5.0455,-1.480745 h -6.03267 v 11.242692 h 6.03267 q 3.34538,0 5.0455,-1.425902 1.70011,-1.480745 1.70011,-4.168023 z" />
        <path
           id="path88"
           style="font-style:normal;font-variant:normal;font-weight:800;font-stretch:normal;font-size:54.8424px;font-family:Montserrat;-inkscape-font-specification:'Montserrat Ultra-Bold';fill:#00acd5;fill-opacity:1;stroke-width:0.571274"
           d="m 229.45388,59.480819 -16.45272,38.38968 H 202.3069 l -16.39788,-38.38968 h 11.73627 l 10.42006,25.008134 10.63942,-25.008134 z" />
        <path
           id="path90"
           style="font-style:normal;font-variant:normal;font-weight:800;font-stretch:normal;font-size:54.8424px;font-family:Montserrat;-inkscape-font-specification:'Montserrat Ultra-Bold';fill:#00acd5;fill-opacity:1;stroke-width:0.571274"
           d="m 231.64758,59.480819 h 10.85879 v 38.38968 h -10.85879 z" />
        <path
           id="path92"
           style="font-style:normal;font-variant:normal;font-weight:800;font-stretch:normal;font-size:54.8424px;font-family:Montserrat;-inkscape-font-specification:'Montserrat Ultra-Bold';fill:#00acd5;fill-opacity:1;stroke-width:0.571274"
           d="m 286.81046,59.480819 v 38.38968 h -8.93931 l -16.9463,-20.456215 v 20.456215 h -10.63943 v -38.38968 h 8.93932 l 16.9463,20.456215 V 59.480819 Z" />
        <path
           id="path94"
           style="font-style:normal;font-variant:normal;font-weight:800;font-stretch:normal;font-size:54.8424px;font-family:Montserrat;-inkscape-font-specification:'Montserrat Ultra-Bold';fill:#00acd5;fill-opacity:1;stroke-width:0.571274"
           d="m 325.34495,89.479612 v 8.390887 H 294.52352 V 59.480819 H 324.632 v 8.390887 h -19.35937 v 6.471403 h 17.05599 v 8.116675 h -17.05599 v 7.019828 z" />
      </g>
    </g>
  </g>
</svg>
