<?xml version="1.0" encoding="UTF-8" standalone="no"?>
<svg
   xmlns:dc="http://purl.org/dc/elements/1.1/"
   xmlns:cc="http://creativecommons.org/ns#"
   xmlns:rdf="http://www.w3.org/1999/02/22-rdf-syntax-ns#"
   xmlns:svg="http://www.w3.org/2000/svg"
   xmlns="http://www.w3.org/2000/svg"
   xml:space="preserve"
   style="enable-background:new 0 0 490.674 490.674;"
   viewBox="0 0 490.674 490.674"
   y="0px"
   x="0px"
   id="Capa_1"
   version="1.1"><metadata
   id="metadata59"><rdf:RDF><cc:Work
       rdf:about=""><dc:format>image/svg+xml</dc:format><dc:type
         rdf:resource="http://purl.org/dc/dcmitype/StillImage" /><dc:title></dc:title></cc:Work></rdf:RDF></metadata><defs
   id="defs57" />
<g
   transform="matrix(-1,0,0,1,490.67434,0)"
   id="g6">
	<circle
   id="circle2"
   r="53.333"
   cy="426.67099"
   cx="394.66699"
   style="fill:#455a64" />
	<circle
   id="circle4"
   r="53.333"
   cy="426.67099"
   cx="181.33299"
   style="fill:#455a64" />
</g>
<path
   id="path8"
   d="m 2.6743433,78.276 c 2.026,-2.294 4.94,-3.607 7.9999997,-3.605 H 394.67434 c 5.891,-0.001 10.668,4.773 10.669,10.664 0,0.717 -0.072,1.433 -0.216,2.136 l -42.667,213.333 c -1.014,4.967 -5.384,8.534 -10.453,8.533 -0.469,0.031 -0.939,0.031 -1.408,0 L 30.599343,266.67 c -4.807,-0.642 -8.576,-4.446 -9.173,-9.259 L 0.09334327,86.744 c -0.408,-3.063 0.534,-6.152 2.58100003,-8.468 z"
   style="fill:#ffc107" />
<g
   transform="matrix(-1,0,0,1,490.67434,0)"
   id="g20">
	<path
   id="path10"
   d="m 181.333,266.671 c -5.214,-0.002 -9.662,-3.774 -10.517,-8.917 l -21.333,-128 c -0.791,-5.838 3.3,-11.211 9.138,-12.002 5.59,-0.758 10.804,2.969 11.897,8.504 l 21.333,128 c 0.963,5.808 -2.961,11.298 -8.768,12.267 -0.578,0.099 -1.163,0.149 -1.75,0.148 z"
   style="fill:#fafafa" />
	<path
   id="path12"
   d="m 234.667,256.004 c -5.536,0.022 -10.169,-4.193 -10.667,-9.707 L 213.333,128.964 c -0.552,-5.865 3.755,-11.067 9.621,-11.619 0.029,-0.003 0.057,-0.005 0.086,-0.008 5.867,-0.531 11.053,3.796 11.584,9.663 0,0 0,0.001 0,0.001 l 10.667,117.333 c 0.53,5.867 -3.796,11.053 -9.663,11.584 0,0 -10e-4,0 -10e-4,0 z"
   style="fill:#fafafa" />
	<path
   id="path14"
   d="m 288,245.337 c -5.891,0 -10.667,-4.776 -10.667,-10.667 V 128.004 c 0,-5.891 4.776,-10.667 10.667,-10.667 5.891,0 10.667,4.776 10.667,10.667 v 106.667 c 0,5.891 -4.776,10.666 -10.667,10.666 z"
   style="fill:#fafafa" />
	<path
   id="path16"
   d="m 341.333,234.671 h -1.195 c -5.858,-0.62 -10.104,-5.872 -9.484,-11.731 0.004,-0.036 0.008,-0.073 0.012,-0.109 l 10.667,-96 c 0.692,-5.867 5.963,-10.093 11.84,-9.493 5.855,0.648 10.077,5.919 9.43,11.775 0,0 0,0.001 0,0.001 l -10.667,96 c -0.568,5.429 -5.143,9.553 -10.603,9.557 z"
   style="fill:#fafafa" />
	<path
   id="path18"
   d="m 394.667,224.004 c -5.891,-0.002 -10.665,-4.779 -10.664,-10.67 0,-0.869 0.107,-1.735 0.317,-2.578 l 21.333,-85.333 c 1.293,-5.747 7.001,-9.358 12.748,-8.065 5.747,1.293 9.358,7.001 8.065,12.748 -0.036,0.161 -0.076,0.321 -0.12,0.48 l -21.333,85.333 c -1.184,4.75 -5.451,8.084 -10.346,8.085 z"
   style="fill:#fafafa" />
</g>
<path
   id="path22"
   d="M 53.341343,352.004 H 299.54934 c 35.558,-0.082 66.155,-25.16 73.216,-60.011 l 51.989,-259.989 h 55.253 c 5.891,0 10.667,-4.776 10.667,-10.667 0,-5.891 -4.776,-10.667 -10.667,-10.667 h -64 c -5.07,-10e-4 -9.439,3.566 -10.453,8.533 l -53.717,268.587 c -5.035,24.896 -26.888,42.817 -52.288,42.88 H 53.341343 c -5.891,0 -10.667,4.776 -10.667,10.667 0,5.891 4.776,10.667 10.667,10.667 z"
   style="fill:#455a64" />
<g
   transform="matrix(-1,0,0,1,490.67434,0)"
   id="g24">
</g>
<g
   transform="matrix(-1,0,0,1,490.67434,0)"
   id="g26">
</g>
<g
   transform="matrix(-1,0,0,1,490.67434,0)"
   id="g28">
</g>
<g
   transform="matrix(-1,0,0,1,490.67434,0)"
   id="g30">
</g>
<g
   transform="matrix(-1,0,0,1,490.67434,0)"
   id="g32">
</g>
<g
   transform="matrix(-1,0,0,1,490.67434,0)"
   id="g34">
</g>
<g
   transform="matrix(-1,0,0,1,490.67434,0)"
   id="g36">
</g>
<g
   transform="matrix(-1,0,0,1,490.67434,0)"
   id="g38">
</g>
<g
   transform="matrix(-1,0,0,1,490.67434,0)"
   id="g40">
</g>
<g
   transform="matrix(-1,0,0,1,490.67434,0)"
   id="g42">
</g>
<g
   transform="matrix(-1,0,0,1,490.67434,0)"
   id="g44">
</g>
<g
   transform="matrix(-1,0,0,1,490.67434,0)"
   id="g46">
</g>
<g
   transform="matrix(-1,0,0,1,490.67434,0)"
   id="g48">
</g>
<g
   transform="matrix(-1,0,0,1,490.67434,0)"
   id="g50">
</g>
<g
   transform="matrix(-1,0,0,1,490.67434,0)"
   id="g52">
</g>
</svg>
